<?xml version="1.0" encoding="UTF-8" standalone="no"?>
<svg
   xmlns:dc="http://purl.org/dc/elements/1.1/"
   xmlns:cc="http://creativecommons.org/ns#"
   xmlns:rdf="http://www.w3.org/1999/02/22-rdf-syntax-ns#"
   xmlns:svg="http://www.w3.org/2000/svg"
   xmlns="http://www.w3.org/2000/svg"
   viewBox="0 0 793.70667 1122.52"
   height="1122.52"
   width="793.70667"
   xml:space="preserve"
   id="svg2"
   version="1.1"><metadata
     id="metadata8"><rdf:RDF><cc:Work
         rdf:about=""><dc:format>image/svg+xml</dc:format><dc:type
           rdf:resource="http://purl.org/dc/dcmitype/StillImage" /></cc:Work></rdf:RDF></metadata><defs
     id="defs6"><clipPath
       id="clipPath18"
       clipPathUnits="userSpaceOnUse"><path
         id="path16"
         d="M 0,841.89 H 595.28 V 0 H 0 Z" /></clipPath></defs><g
     transform="matrix(1.3333333,0,0,-1.3333333,0,1122.52)"
     id="g10"><g
       id="g12"><g
         clip-path="url(#clipPath18)"
         id="g14"><g
           transform="translate(562,39.89)"
           id="g20"><path
             id="path22"
             style="fill:none;stroke:#373535;stroke-width:1;stroke-linecap:butt;stroke-linejoin:miter;stroke-miterlimit:10;stroke-dasharray:none;stroke-opacity:1"
             d="m 0,0 c 0,-6.627 -5.373,-12 -12,-12 h -508 c -6.627,0 -12,5.373 -12,12 v 764 c 0,6.627 5.373,12 12,12 h 508 c 6.627,0 12,-5.373 12,-12 z" /></g><g
           transform="translate(373.2187,541.7222)"
           id="g24"><path
             id="path26"
             style="fill:#373535;fill-opacity:1;fill-rule:nonzero;stroke:none"
             d="m 0,0 c -10.133,-11.611 -23.535,-17.241 -47,-17.241 h -101.634 v 0 h -2.523 V 112.24 H -47.8 c 16.532,0 27.998,-1.056 33.864,-3.167 9.711,-6.161 17.332,-10.907 22.932,-21.463 5.866,-10.907 8.8,-23.925 8.8,-38.703 C 17.796,27.796 9.599,11.259 0,0 m 53.046,95.208 c -5.866,15.129 -14.406,24.143 -23.472,32.587 -9.066,8.444 -25.111,16.672 -38.443,19.487 -9.6,2.463 -23.732,3.518 -41.864,3.518 H -191.529 V -17.241 h -23.002 v -37.687 h 23.002 v -15.274 h -23.002 v -37.687 h 23.002 v -104.068 h 40.372 v 104.068 H -6.572 v 37.687 h -144.585 v 15.274 h 2.523 101.1 c 38.931,0 66.781,10.889 84.15,32.019 16.603,20.197 26.757,37.895 26.757,68.858 0,17.944 -4.994,34.481 -10.327,49.259" /></g><g
           transform="translate(339.8899,227.9599)"
           id="g28"><path
             id="path30"
             style="fill:#373535;fill-opacity:1;fill-rule:nonzero;stroke:none"
             d="m 0,0 c -1.45,-7.795 -4.641,-13.902 -9.309,-18.06 -4.908,-4.288 -12.002,-6.368 -21.521,-6.369 l -39.346,-0.006 8.893,47.809 39.021,0.006 c 6.707,0.001 11.286,-0.388 13.521,-1.167 3.653,-1.298 6.283,-4.026 7.829,-7.923 C 0.719,10.263 1.015,5.457 0,0 m 16.229,17.098 c -1.341,5.586 -4.613,9.873 -7.712,12.99 -3.098,3.118 -7.363,5.195 -12.578,6.234 -3.726,0.908 -9.387,1.297 -16.743,1.296 l -52.987,-0.008 -11.541,-62.048 -10.483,-0.003 -2.589,-13.916 10.483,0.003 -1.128,-6.066 -10.508,-10e-4 -2.589,-13.916 10.509,0.002 -7.068,-38 15.156,0.003 7.068,37.999 54.147,0.009 2.588,13.915 -54.146,-0.008 1.128,6.066 39.129,0.006 c 15.794,0.003 28.508,4.032 35.908,11.829 7.532,7.926 12.178,13.994 14.305,25.427 1.232,6.625 0.799,12.731 -0.349,18.187" /></g></g></g></g></svg>