<?xml version="1.0" encoding="UTF-8" standalone="no"?>
<svg
   xmlns:dc="http://purl.org/dc/elements/1.1/"
   xmlns:cc="http://creativecommons.org/ns#"
   xmlns:rdf="http://www.w3.org/1999/02/22-rdf-syntax-ns#"
   xmlns:svg="http://www.w3.org/2000/svg"
   xmlns="http://www.w3.org/2000/svg"
   viewBox="0 0 438.02267 178.46533"
   height="178.46533"
   width="438.02267"
   xml:space="preserve"
   id="svg2"
   version="1.1"><metadata
     id="metadata8"><rdf:RDF><cc:Work
         rdf:about=""><dc:format>image/svg+xml</dc:format><dc:type
           rdf:resource="http://purl.org/dc/dcmitype/StillImage" /></cc:Work></rdf:RDF></metadata><defs
     id="defs6"><clipPath
       id="clipPath92"
       clipPathUnits="userSpaceOnUse"><path
         id="path90"
         d="M 0,133.849 H 328.517 V 0 H 0 Z" /></clipPath></defs><g
     transform="matrix(1.3333333,0,0,-1.3333333,0,178.46533)"
     id="g10"><path
       id="path12"
       style="fill:#00b0f0;fill-opacity:1;fill-rule:nonzero;stroke:none"
       d="M 103.752,29.945 H 92.735 v 11.448 h 11.017 z" /><path
       id="path14"
       style="fill:#00b0f0;fill-opacity:1;fill-rule:nonzero;stroke:none"
       d="m 92.448,41.73 h -8.413 v 8.74 h 8.413 z" /><path
       id="path16"
       style="fill:#00b0f0;fill-opacity:1;fill-rule:nonzero;stroke:none"
       d="M 121.02,12.107 H 104.008 V 29.773 H 121.02 Z" /><path
       id="path18"
       style="fill:#953993;fill-opacity:1;fill-rule:nonzero;stroke:none"
       d="M 103.586,103.416 H 92.569 V 91.967 h 11.017 z" /><path
       id="path20"
       style="fill:#953993;fill-opacity:1;fill-rule:nonzero;stroke:none"
       d="m 92.282,91.629 h -8.413 v -8.741 h 8.413 z" /><path
       id="path22"
       style="fill:#953993;fill-opacity:1;fill-rule:nonzero;stroke:none"
       d="m 120.854,121.253 h -17.012 v -17.667 h 17.012 z" /><path
       id="path24"
       style="fill:#f58735;fill-opacity:1;fill-rule:nonzero;stroke:none"
       d="M 31.886,102.75 H 42.903 V 91.301 H 31.886 Z" /><path
       id="path26"
       style="fill:#f58735;fill-opacity:1;fill-rule:nonzero;stroke:none"
       d="m 43.19,90.963 h 8.413 V 82.222 H 43.19 Z" /><path
       id="path28"
       style="fill:#f58735;fill-opacity:1;fill-rule:nonzero;stroke:none"
       d="M 14.618,120.587 H 31.63 V 102.92 H 14.618 Z" /><path
       id="path30"
       style="fill:#90c84b;fill-opacity:1;fill-rule:nonzero;stroke:none"
       d="M 61.715,31.087 H 73.158 V 20.069 H 61.715 Z" /><path
       id="path32"
       style="fill:#90c84b;fill-opacity:1;fill-rule:nonzero;stroke:none"
       d="m 63.674,41.394 h 7.527 v -7.245 h -7.527 z" /><path
       id="path34"
       style="fill:#90c84b;fill-opacity:1;fill-rule:nonzero;stroke:none"
       d="M 58.605,0 H 76.268 V 17.008 H 58.605 Z" /><path
       id="path36"
       style="fill:#0082c7;fill-opacity:1;fill-rule:nonzero;stroke:none"
       d="m 114.182,61.313 h -11.018 v 11.443 h 11.018 z" /><path
       id="path38"
       style="fill:#0082c7;fill-opacity:1;fill-rule:nonzero;stroke:none"
       d="m 100.102,63.271 h -7.244 v 7.527 h 7.244 z" /><path
       id="path40"
       style="fill:#0082c7;fill-opacity:1;fill-rule:nonzero;stroke:none"
       d="m 134.252,58.203 h -17.01 v 17.662 h 17.01 z" /><path
       id="path42"
       style="fill:#ee3338;fill-opacity:1;fill-rule:nonzero;stroke:none"
       d="M 72.939,102.761 H 61.496 v 11.018 h 11.443 z" /><path
       id="path44"
       style="fill:#ee3338;fill-opacity:1;fill-rule:nonzero;stroke:none"
       d="m 70.98,92.455 h -7.527 v 7.244 h 7.527 z" /><path
       id="path46"
       style="fill:#ee3338;fill-opacity:1;fill-rule:nonzero;stroke:none"
       d="m 58.386,116.84 h 17.662 v 17.009 H 58.386 Z" /><path
       id="path48"
       style="fill:#fdbb2f;fill-opacity:1;fill-rule:nonzero;stroke:none"
       d="M 20.472,72.536 H 31.49 V 61.092 H 20.472 Z" /><path
       id="path50"
       style="fill:#fdbb2f;fill-opacity:1;fill-rule:nonzero;stroke:none"
       d="m 34.552,70.577 h 7.244 v -7.528 h -7.244 z" /><path
       id="path52"
       style="fill:#fdbb2f;fill-opacity:1;fill-rule:nonzero;stroke:none"
       d="M 0.402,57.982 H 17.411 V 75.645 H 0.402 Z" /><path
       id="path54"
       style="fill:#96989b;fill-opacity:1;fill-rule:nonzero;stroke:none"
       d="m 50.091,103.666 h 4.25 V 99.57 h -4.25 z" /><path
       id="path56"
       style="fill:#96989b;fill-opacity:1;fill-rule:nonzero;stroke:none"
       d="m 41.939,118.427 h 7.793 v -7.504 h -7.793 z" /><path
       id="path58"
       style="fill:#96989b;fill-opacity:1;fill-rule:nonzero;stroke:none"
       d="m 84.689,103.667 h -4.25 V 99.57 h 4.25 z" /><path
       id="path60"
       style="fill:#96989b;fill-opacity:1;fill-rule:nonzero;stroke:none"
       d="m 92.841,118.428 h -7.793 v -7.504 h 7.793 z" /><path
       id="path62"
       style="fill:#96989b;fill-opacity:1;fill-rule:nonzero;stroke:none"
       d="m 100.138,83.919 h 4.096 v -4.25 h -4.096 z" /><path
       id="path64"
       style="fill:#96989b;fill-opacity:1;fill-rule:nonzero;stroke:none"
       d="m 111.492,92.071 h 7.504 v -7.793 h -7.504 z" /><path
       id="path66"
       style="fill:#96989b;fill-opacity:1;fill-rule:nonzero;stroke:none"
       d="m 100.139,49.32 h 4.096 v 4.25 h -4.096 z" /><path
       id="path68"
       style="fill:#96989b;fill-opacity:1;fill-rule:nonzero;stroke:none"
       d="m 111.493,41.169 h 7.504 v 7.793 h -7.504 z" /><path
       id="path70"
       style="fill:#96989b;fill-opacity:1;fill-rule:nonzero;stroke:none"
       d="m 84.689,30.061 h -4.25 v 4.096 h 4.25 z" /><path
       id="path72"
       style="fill:#96989b;fill-opacity:1;fill-rule:nonzero;stroke:none"
       d="m 92.841,15.297 h -7.793 v 7.504 h 7.793 z" /><path
       id="path74"
       style="fill:#96989b;fill-opacity:1;fill-rule:nonzero;stroke:none"
       d="m 50.091,30.06 h 4.25 v 4.095 h -4.25 z" /><path
       id="path76"
       style="fill:#96989b;fill-opacity:1;fill-rule:nonzero;stroke:none"
       d="m 41.939,15.297 h 7.793 v 7.504 h -7.793 z" /><path
       id="path78"
       style="fill:#96989b;fill-opacity:1;fill-rule:nonzero;stroke:none"
       d="m 36.164,83.919 h -4.096 v -4.25 h 4.096 z" /><path
       id="path80"
       style="fill:#96989b;fill-opacity:1;fill-rule:nonzero;stroke:none"
       d="M 24.81,92.071 H 17.306 V 84.278 H 24.81 Z" /><path
       id="path82"
       style="fill:#96989b;fill-opacity:1;fill-rule:nonzero;stroke:none"
       d="m 36.163,49.32 h -4.095 v 4.25 h 4.095 z" /><path
       id="path84"
       style="fill:#96989b;fill-opacity:1;fill-rule:nonzero;stroke:none"
       d="m 24.809,41.169 h -7.504 v 7.793 h 7.504 z" /><g
       id="g86"><g
         clip-path="url(#clipPath92)"
         id="g88"><g
           transform="translate(67.4434,65.0254)"
           id="g94"><path
             id="path96"
             style="fill:#96989b;fill-opacity:1;fill-rule:nonzero;stroke:none"
             d="m 0,0 c -0.939,0 -1.699,0.761 -1.699,1.696 0,0.938 0.76,1.699 1.699,1.699 0.934,0 1.693,-0.761 1.693,-1.699 C 1.693,0.761 0.934,0 0,0 M 4.563,3.113 14.629,16.541 1.208,6.482 C 0.479,6.68 -0.288,6.683 -1.031,6.529 L -14.733,16.541 -4.727,2.842 C -4.908,1.974 -4.855,1.068 -4.548,0.221 l -62.886,-59.297 c -0.201,-2.367 2.731,-5.524 5.237,-5.57 L -1.4,-2.743 c 0.79,-0.232 1.623,-0.244 2.428,-0.059 L 14.629,-12.738 4.639,0.941 C 4.778,1.66 4.757,2.4 4.563,3.113 M 2.979,10.3 0,24.504 -2.985,10.261 c 1.935,0.688 4.039,0.692 5.964,0.039 M -22.806,1.725 -8.563,-1.262 C -9.25,0.674 -9.254,2.778 -8.602,4.703 Z M -2.988,-6.908 -0.01,-21.113 2.976,-6.869 C 1.04,-7.557 -1.064,-7.561 -2.988,-6.908 M 22.78,1.699 8.537,4.685 C 9.225,2.749 9.229,0.645 8.576,-1.279 Z" /></g><g
           transform="translate(223.2139,35.8653)"
           id="g98"><path
             id="path100"
             style="fill:#0082c7;fill-opacity:1;fill-rule:evenodd;stroke:none"
             d="m 0,0 c -0.14,-2.168 -0.965,-7.319 -5.656,-7.319 -3.903,0 -3.563,3.692 -3.563,3.692 0,0 0.056,4.346 5.881,4.346 l 3.338,0 z m -3.562,16.141 c 0,0 -6.053,-0.053 -11.198,-2.387 V 7.072 c 0,0 3.733,2.877 8.821,2.877 3.966,0 5.353,-2.211 5.774,-4.652 -2.071,0.042 -8.533,0.025 -12.391,-1.647 -4.637,-2.009 -5.485,-6.463 -5.485,-8.689 0,-2.226 1.471,-8.473 8.935,-8.473 4.692,0 7.595,3.046 9.106,5.31 v -4.821 H 8.766 V 8.051 c 0,0 -0.17,8.09 -12.328,8.09 m -22.488,11.834 -4.389,-24.848 -3.868,24.584 -11.05,-0.002 -3.869,-24.582 -4.387,24.848 h -10.214 l 9.301,-40.973 h 10.51 l 4.184,24.139 4.184,-24.137 h 10.511 l 9.301,40.971 z M 32.386,16.051 c -4.856,0 -7.09,-2.346 -7.992,-3.737 v 3.048 h -10.16 v -28.235 h 10.16 V 4.888 c 0.683,1.477 1.902,3.306 3.77,3.306 3.131,0 2.583,-4.054 2.583,-4.054 V -12.873 H 40.908 V 8.412 c 0,0 -1.056,7.639 -8.522,7.639 M 64.451,0.124 c -0.369,-3.752 -2.08,-6.593 -4.137,-6.593 -2.328,0 -4.212,3.631 -4.212,8.108 0,4.474 1.884,8.106 4.212,8.106 2.057,0 3.768,-2.842 4.137,-6.593 z m 0,27.766 V 12.025 c -1.987,2.578 -4.684,4.169 -7.662,4.169 -6.105,0 -11.057,-6.661 -11.057,-14.88 0,-8.216 4.952,-14.878 11.057,-14.878 2.978,0 5.675,1.592 7.662,4.169 v -3.478 h 9.936 V 27.89 Z" /></g><g
           transform="translate(303.5196,82.3091)"
           id="g102"><path
             id="path104"
             style="fill:#005c8b;fill-opacity:1;fill-rule:evenodd;stroke:none"
             d="m 0,0 c -0.145,-2.183 -0.983,-7.294 -5.655,-7.294 -3.902,0 -3.563,3.694 -3.563,3.694 0,0 0.057,4.344 5.881,4.344 l 3.337,0 z m -3.563,16.168 c 0,0 -6.05,-0.055 -11.196,-2.39 V 7.099 c 0,0 3.731,2.877 8.821,2.877 3.967,0 5.353,-2.211 5.773,-4.651 -2.073,0.041 -8.533,0.022 -12.389,-1.648 -4.637,-2.01 -5.486,-6.463 -5.486,-8.689 0,-2.227 1.471,-8.473 8.935,-8.473 4.692,0 7.594,3.045 9.105,5.308 v -4.819 h 8.766 v 21.07 c 0,0 -0.169,8.094 -12.329,8.094 m -126.7,-21.912 h -3.818 V 21.26 h 3.443 c 0,0 8.069,-0.06 8.069,-13.983 0,-12.365 -7.694,-13.021 -7.694,-13.021 m 1.209,34.411 h -15.767 v -41.728 h 13.957 c 0,0 19.227,-1.909 19.227,19.164 0,0 1.058,22.564 -17.417,22.564 M -27.032,-2.442 c 0,2.364 0.011,6.594 0.025,10.988 h 5.744 v 6.679 h -5.72 c 0.017,4.918 0.034,8.827 0.034,8.827 l -10.005,-2.909 v -5.918 h -4.077 V 8.546 h 4.077 V -5.123 c 0,0 0.328,-8.386 7.893,-8.642 5.593,-0.191 8.169,0.704 8.169,0.704 l -0.371,6.382 c 0,0 -5.769,-2.171 -5.769,4.237 m -79.534,21.437 h 10.236 v 9.662 h -10.236 z m 0,-32.041 H -96.33 V 15.19 h -10.236 z m 50.946,32.041 h 10.236 v 9.662 H -55.62 Z M -76.545,-6.679 c -2.327,0 -4.215,3.551 -4.215,7.929 0,4.38 1.888,7.93 4.215,7.93 2.327,0 4.213,-3.55 4.213,-7.93 0,-4.378 -1.886,-7.929 -4.213,-7.929 m 14.262,21.869 h -9.558 v -4.357 c -2.027,3.105 -5.026,5.08 -8.381,5.08 -6.103,0 -11.054,-6.518 -11.054,-14.553 0,-8.039 4.951,-14.555 11.054,-14.555 3.352,0 6.349,1.971 8.376,5.073 -0.088,-2.661 -0.894,-10.07 -7.159,-10.07 -5.769,0 -10.277,2.576 -10.277,2.576 v -7.672 c 0,0 2.471,-1.802 11.069,-1.91 17.417,0 15.93,18.017 15.93,18.017 z m 6.663,-28.236 h 10.236 V 15.19 H -55.62 Z m 70.363,0 H 24.997 V 28.617 H 14.743 Z" /></g></g></g></g></svg>