<?xml version="1.0" encoding="utf-8"?>
<!-- Generator: Avocode 2.6.0 - http://avocode.com -->
<svg height="36" width="238" xmlns:xlink="http://www.w3.org/1999/xlink" xmlns="http://www.w3.org/2000/svg" viewBox="0 0 238 36">
    <path fill="#ffffff" fill-rule="evenodd" d="M 236.86 34.5 C 236.81 34.7 236.47 34.84 236.33 34.84 C 236.33 34.84 228.94 34.84 228.94 34.84 C 228.46 34.84 228.26 33.21 228.26 31.62 C 228.26 27.54 228.36 27.59 228.55 24.9 C 228.65 24.52 228.7 24.47 228.7 23.94 C 228.6 23.17 228.55 21.45 228.21 21.45 C 228.21 21.45 227.98 21.3 227.98 21.3 C 226.44 21.3 223.37 21.16 221.74 21.16 C 220.44 21.16 219.53 21.21 219.33 21.45 C 219.33 21.45 219.05 21.69 219.05 21.69 C 219.05 23.08 218.95 23.41 218.95 24.42 C 218.95 25.67 219.05 26.97 219.05 28.31 C 219.05 30.66 219.05 32.05 218.95 34.5 C 218.66 34.93 217.99 34.93 217.56 34.93 C 215.25 34.93 212.95 34.84 210.69 34.65 C 210.17 34.41 210.12 33.74 210.12 33.11 C 210.12 23.03 210.6 12.8 210.6 2.82 C 210.65 2.15 210.79 1.52 211.51 1.52 C 211.51 1.52 218.37 1.52 218.37 1.52 C 218.71 1.52 219.1 1.62 219.19 2.05 C 219.1 3.54 219.1 9.64 219.1 11.56 C 219.1 13.38 219.29 14.15 220.15 14.15 C 220.15 14.15 227.54 14.15 227.54 14.15 C 228.7 14.15 228.7 11.46 228.7 10.69 C 228.74 10.21 228.79 9.83 228.79 9.3 C 228.79 8.49 228.7 4.84 228.7 3.73 C 228.7 3.25 228.79 1.96 228.79 1.91 C 228.79 1.91 229.37 1.62 229.37 1.62 C 229.37 1.62 236.86 1.62 236.86 1.62 C 236.86 1.62 237.14 1.91 237.14 1.91 C 237.14 1.91 237.14 27.69 237.14 27.69 C 237.14 29.75 236.86 32.34 236.86 34.5 Z M 196.68 27.11 C 198.94 27.11 200.66 26.3 202.78 25.29 C 203.11 25.29 206.76 31 206.76 31.67 C 206.76 33.3 200.52 35.08 199.32 35.18 C 198.7 35.32 198.02 35.32 197.35 35.32 C 193.51 35.32 189.67 34.79 186.41 32.53 C 186.17 32.34 185.59 32.01 185.59 31.53 C 185.59 31.57 185.35 31.67 185.3 31.67 C 180.98 28.7 178.58 23.61 178.58 18.37 C 178.58 17.32 178.92 16.36 178.92 15.64 C 178.92 15.49 178.58 15.25 178.58 15.11 C 178.58 15.06 178.73 15.06 178.73 14.97 C 180.31 5.75 187.46 0.85 196.68 0.85 C 197.21 0.85 197.74 0.85 198.41 0.95 C 199.61 1.09 205.51 2.34 205.51 3.49 C 205.51 4.02 202.44 9.93 202.01 9.97 C 201.91 10.02 201.77 10.02 201.67 10.02 C 201.05 10.02 200.66 9.64 200.23 9.4 C 199.18 8.92 197.5 8.87 196.34 8.87 C 189.58 8.87 187.56 14.58 187.56 20.53 C 190.01 24.52 191.83 27.11 196.68 27.11 Z M 167.83 35.32 C 166.1 35.32 164.38 35.37 163.22 35.37 C 160.44 35.37 157.61 35.13 154.87 35.13 C 154.87 35.13 154.39 34.74 154.39 34.74 C 154.39 34.45 154.49 34.26 154.49 33.97 C 154.49 32.49 154.2 20.2 154.2 15.73 C 154.2 13.43 154.29 11.32 154.29 9.16 C 154.34 9.16 154.49 9.01 154.49 8.97 C 154.15 8.34 154.15 7.53 154.15 6.8 C 154.15 5.51 154.2 4.02 154.2 2.29 C 154.39 1.67 155.11 1.57 155.78 1.57 C 156.26 1.57 156.6 1.62 156.79 1.62 C 161.26 1.62 165 1.48 169.66 1.48 C 171.91 1.48 173.5 1.52 173.5 3.11 C 173.5 4.5 173.69 5.84 173.69 7.24 C 173.69 7.96 173.64 8.49 173.21 8.68 C 170.76 9.01 163.46 8.63 163.08 9.3 C 163.08 10.69 163.03 12.04 163.03 12.8 C 163.03 13.67 163.08 14.15 163.46 14.24 C 164.76 14.44 169.32 14.44 172.58 14.44 C 172.58 14.44 172.97 14.73 172.97 14.73 C 173.02 16.65 173.06 19.57 173.11 20.82 C 173.11 21.06 172.82 21.59 172.58 21.59 C 172.58 21.59 163.75 21.59 163.75 21.59 C 163.08 21.59 162.98 22.36 162.98 22.93 C 162.98 23.32 163.03 23.75 163.03 23.89 C 163.03 25.48 163.18 27.74 164.04 27.78 C 164.38 27.78 164.86 27.83 165.48 27.83 C 166.1 27.83 166.78 27.78 167.5 27.78 C 171.43 27.78 173.98 27.83 173.98 29.03 C 173.98 29.75 174.07 33.06 174.07 33.74 C 174.07 33.74 173.98 34.93 173.98 34.93 C 173.64 35.27 170.71 35.32 167.83 35.32 Z M 148.54 8.82 C 148.54 8.82 144.36 8.82 144.36 8.82 C 143.98 8.82 143.78 9.4 143.78 9.73 C 143.78 9.73 143.78 34.5 143.78 34.5 C 143.78 34.55 143.35 34.89 143.21 34.89 C 143.21 34.89 135.67 34.89 135.67 34.89 C 135.67 34.89 135.34 34.6 135.34 34.6 C 135.29 34.55 135.19 19.91 135.19 12.09 C 135.19 12.09 135.05 9.4 135.05 9.4 C 135.05 8.29 129.38 9.06 129.38 8.34 C 129.38 8.34 129.38 2.2 129.38 2.2 C 129.38 2.15 129.62 2.01 129.77 1.91 C 129.77 1.91 133.85 1.86 133.85 1.86 C 133.85 1.86 134.38 2.05 134.38 2.05 C 134.42 2.05 134.62 1.91 134.76 1.91 C 134.76 1.91 148.92 1.91 148.92 1.91 C 148.92 1.91 149.35 2.05 149.35 2.05 C 149.4 2.92 149.45 5.03 149.45 8.58 C 149.45 8.68 148.78 8.82 148.54 8.82 Z M 114.26 34.84 C 111.14 34.84 107.74 34.7 107.74 34.31 C 107.59 23.75 107.11 13.29 107.11 2.77 C 107.11 2.2 107.26 1.57 107.74 1.57 C 107.74 1.57 115.51 1.57 115.51 1.57 C 115.51 1.57 115.8 1.81 115.8 1.81 C 115.85 1.91 115.95 3.54 115.99 4.21 C 115.99 4.45 115.95 5.89 115.95 6.9 C 115.95 9.35 116.38 21.54 116.38 27.59 C 116.38 27.59 116.52 27.74 116.52 27.74 C 116.52 27.74 126.12 27.74 126.12 27.74 C 126.51 27.74 126.84 27.83 126.84 28.55 C 126.84 30.04 127.13 31.67 127.13 33.16 C 127.13 33.45 126.94 34.36 126.65 34.41 C 122.38 34.84 120.94 34.84 114.26 34.84 Z M 98.43 30.09 C 94.49 33.97 91.18 35.99 85.51 35.99 C 75.43 35.99 67.66 28.45 67.66 18.28 C 67.66 9.45 75.15 1.14 85.23 1.14 C 95.11 1.14 102.51 9.06 102.51 19.14 C 102.51 22.12 101.6 24.61 100.4 27.35 C 99.53 27.93 99.15 29.41 98.43 30.09 Z M 85.03 9.78 C 80.19 9.78 76.59 13.62 76.59 18.42 C 76.59 23.65 80.23 27.01 85.42 27.01 C 90.27 27.01 93.82 23.13 93.82 18.42 C 93.82 13.62 89.88 9.78 85.03 9.78 Z M 60.36 30.09 C 56.43 33.97 53.11 35.99 47.45 35.99 C 37.37 35.99 29.59 28.45 29.59 18.28 C 29.59 9.45 37.08 1.14 47.16 1.14 C 57.05 1.14 64.44 9.06 64.44 19.14 C 64.44 22.12 63.53 24.61 62.33 27.35 C 61.47 27.93 61.08 29.41 60.36 30.09 Z M 46.97 9.78 C 42.12 9.78 38.52 13.62 38.52 18.42 C 38.52 23.65 42.17 27.01 47.35 27.01 C 52.2 27.01 55.75 23.13 55.75 18.42 C 55.75 13.62 51.82 9.78 46.97 9.78 Z M 18.51 27.11 C 20.76 27.11 22.49 26.3 24.6 25.29 C 24.94 25.29 28.59 31 28.59 31.67 C 28.59 33.3 22.35 35.08 21.15 35.18 C 20.52 35.32 19.85 35.32 19.18 35.32 C 15.34 35.32 11.5 34.79 8.23 32.53 C 7.99 32.34 7.42 32.01 7.42 31.53 C 7.42 31.57 7.18 31.67 7.13 31.67 C 2.81 28.7 0.41 23.61 0.41 18.37 C 0.41 17.32 0.74 16.36 0.74 15.64 C 0.74 15.49 0.41 15.25 0.41 15.11 C 0.41 15.06 0.55 15.06 0.55 14.97 C 2.14 5.75 9.29 0.85 18.51 0.85 C 19.03 0.85 19.56 0.85 20.23 0.95 C 21.43 1.09 27.34 2.34 27.34 3.49 C 27.34 4.02 24.27 9.93 23.83 9.97 C 23.74 10.02 23.59 10.02 23.5 10.02 C 22.87 10.02 22.49 9.64 22.06 9.4 C 21 8.92 19.32 8.87 18.17 8.87 C 11.4 8.87 9.39 14.58 9.39 20.53 C 11.83 24.52 13.66 27.11 18.51 27.11 Z" />
</svg>